<?xml version="1.0" standalone="no"?>
<!DOCTYPE svg PUBLIC "-//W3C//DTD SVG 20010904//EN"
 "http://www.w3.org/TR/2001/REC-SVG-20010904/DTD/svg10.dtd">
<svg version="1.0" xmlns="http://www.w3.org/2000/svg"
 width="512.000000pt" height="512.000000pt" viewBox="0 0 512.000000 512.000000"
 preserveAspectRatio="xMidYMid meet">

<g transform="translate(0.000000,512.000000) scale(0.100000,-0.100000)"
fill="#000000" stroke="none">
<path d="M2098 5111 c-57 -19 -89 -58 -263 -319 l-180 -270 -180 -4 c-169 -3
-182 -4 -218 -27 -21 -13 -50 -42 -65 -64 -23 -34 -27 -52 -27 -107 0 -55 4
-73 27 -107 15 -22 44 -51 65 -64 38 -24 41 -24 304 -24 l265 0 40 26 c28 19
73 78 163 212 68 103 127 187 131 187 4 0 153 -219 331 -486 236 -355 334
-493 359 -510 45 -30 116 -40 166 -24 85 27 92 38 286 425 l182 363 171 4
c167 3 173 4 212 30 62 41 88 90 88 168 0 78 -26 127 -88 168 l-41 27 -267 0
-267 0 -44 -30 c-39 -27 -55 -54 -179 -298 l-135 -268 -315 472 c-234 352
-323 478 -350 496 -41 27 -125 38 -171 24z"/>
<path d="M852 3900 c-109 -29 -187 -74 -272 -160 -137 -136 -180 -256 -181
-504 l0 -151 -72 -34 c-100 -47 -210 -158 -261 -261 -68 -139 -66 -103 -66
-1236 0 -984 1 -1024 20 -1098 29 -113 73 -190 160 -276 86 -87 163 -131 276
-160 76 -20 118 -20 2104 -20 1986 0 2028 0 2104 20 113 29 190 73 276 160 87
86 131 163 160 276 19 74 20 114 20 1098 0 1133 2 1097 -66 1236 -51 103 -161
214 -261 261 l-72 34 0 151 c-1 248 -44 368 -181 504 -86 87 -163 131 -276
160 -98 25 -190 25 -288 0 -113 -29 -190 -73 -276 -160 -134 -133 -180 -258
-180 -487 l0 -133 -960 0 -960 0 0 133 c0 229 -46 354 -180 487 -86 87 -163
131 -276 160 -96 25 -197 25 -292 0z m258 -414 c21 -13 48 -42 61 -63 22 -34
24 -52 27 -170 l4 -133 -201 0 -201 0 0 113 c0 61 5 129 11 150 13 46 76 113
121 126 53 16 135 6 178 -23z m3120 0 c21 -13 48 -42 61 -63 22 -34 24 -52 27
-170 l4 -133 -201 0 -201 0 0 113 c0 61 5 129 11 150 13 46 76 113 121 126 53
16 135 6 178 -23z m393 -795 c21 -13 50 -42 65 -64 l27 -41 0 -1026 0 -1026
-27 -41 c-15 -22 -44 -51 -65 -64 l-38 -24 -2026 0 -2025 0 -41 27 c-22 15
-51 44 -64 65 l-24 38 -3 1003 c-2 690 1 1016 8 1043 13 48 76 115 122 128 21
6 793 9 2043 8 l2010 -2 38 -24z"/>
<path d="M1332 2149 c-45 -13 -108 -80 -121 -126 -6 -21 -11 -88 -11 -150 l0
-111 -133 -4 c-125 -3 -136 -5 -174 -30 -63 -41 -88 -90 -88 -169 0 -54 5 -72
27 -106 15 -22 44 -51 65 -64 34 -21 52 -24 170 -27 l131 -4 4 -131 c3 -118 6
-136 27 -170 13 -21 42 -50 64 -65 34 -23 52 -27 107 -27 55 0 73 4 107 27 22
15 51 44 64 65 21 34 24 52 27 170 l4 131 131 4 c118 3 136 6 170 27 21 13 50
42 65 64 22 34 27 52 27 106 0 79 -25 128 -88 169 -38 25 -49 27 -173 30
l-132 4 -4 131 c-3 118 -6 136 -27 170 -47 76 -151 113 -239 86z"/>
<path d="M3252 1749 c-47 -14 -109 -80 -123 -131 -23 -89 12 -182 88 -229 l38
-24 465 0 465 0 38 24 c21 13 50 42 65 64 23 34 27 52 27 107 0 55 -4 73 -27
107 -15 22 -44 51 -65 64 l-38 24 -450 2 c-267 1 -463 -2 -483 -8z"/>
</g>
</svg>
