<?xml version="1.0" standalone="no"?>
<!DOCTYPE svg PUBLIC "-//W3C//DTD SVG 20010904//EN"
 "http://www.w3.org/TR/2001/REC-SVG-20010904/DTD/svg10.dtd">
<svg version="1.0" xmlns="http://www.w3.org/2000/svg"
 width="512.000000pt" height="512.000000pt" viewBox="0 0 512.000000 512.000000"
 preserveAspectRatio="xMidYMid meet">

<g transform="translate(0.000000,512.000000) scale(0.100000,-0.100000)"
fill="#000000" stroke="none">
<path d="M2237 4742 l-317 -317 245 -245 245 -245 0 -80 0 -80 -92 92 c-107
104 -121 113 -181 113 -112 0 -191 -125 -141 -223 9 -18 104 -120 210 -227
l194 -196 -2 -247 -3 -247 -216 127 -216 126 -73 271 c-69 254 -76 273 -109
307 -63 63 -161 61 -220 -6 -47 -53 -49 -91 -14 -233 17 -68 28 -122 24 -120
-30 15 -131 69 -131 71 -1 12 -170 660 -173 664 -6 5 -855 -222 -864 -231 -7
-7 216 -847 228 -860 5 -6 137 26 326 78 175 47 325 86 333 86 22 0 134 -66
124 -72 -5 -3 -60 -18 -122 -33 -91 -22 -119 -33 -142 -57 -100 -99 -19 -282
117 -265 21 2 152 36 292 74 l254 71 214 -125 c117 -69 213 -128 213 -132 0
-10 -415 -271 -431 -271 -8 0 -133 32 -279 71 -244 65 -268 70 -307 60 -106
-29 -149 -144 -88 -237 25 -39 65 -58 175 -84 56 -13 103 -27 105 -30 2 -3
-25 -21 -60 -40 l-63 -34 -331 91 -331 90 -10 -36 c-79 -284 -222 -832 -218
-836 8 -9 861 -236 866 -231 3 4 89 312 172 618 9 31 20 42 76 72 35 20 66 36
68 36 2 0 -10 -54 -26 -120 -33 -129 -32 -162 2 -218 23 -37 88 -71 136 -72
35 0 88 32 115 70 10 14 51 145 90 291 l72 266 216 126 216 127 3 -247 2 -247
-199 -201 c-109 -110 -206 -214 -215 -232 -50 -98 29 -223 141 -223 60 0 74 9
181 113 l92 92 0 -80 0 -80 -245 -245 -245 -245 320 -320 320 -320 320 320
320 320 -245 245 -245 245 0 79 0 80 98 -96 c76 -75 106 -98 134 -103 126 -24
228 106 172 218 -9 18 -104 120 -210 227 l-194 196 2 246 3 247 216 -126 216
-126 58 -216 c85 -318 90 -332 128 -370 61 -58 157 -52 216 14 46 53 48 89 14
231 -17 69 -27 123 -24 122 113 -55 130 -68 142 -110 71 -265 168 -610 172
-614 5 -5 169 38 681 177 98 27 181 51 184 54 4 4 -138 547 -218 836 l-10 36
-303 -84 c-166 -46 -316 -86 -334 -89 -25 -5 -45 2 -93 29 -34 19 -58 37 -53
39 4 3 58 17 118 32 135 33 168 58 186 133 18 80 -29 160 -108 183 -38 12 -60
8 -307 -54 -147 -36 -274 -66 -283 -66 -17 0 -433 240 -433 250 0 10 416 250
434 250 10 0 133 -31 275 -70 141 -38 270 -70 287 -70 17 0 46 10 64 23 95 63
97 200 4 262 -17 11 -76 31 -133 45 -56 13 -104 26 -106 30 -2 3 26 21 61 40
l64 34 330 -91 330 -90 10 36 c84 301 222 832 218 837 -10 10 -860 255 -865
250 -3 -3 -46 -151 -94 -328 -96 -348 -88 -330 -177 -380 l-49 -27 30 124 c27
113 29 129 17 167 -15 51 -66 103 -111 112 -42 8 -101 -9 -138 -40 -35 -29
-41 -47 -126 -365 l-58 -216 -216 -126 -216 -126 -3 247 -2 246 194 196 c106
107 201 210 211 229 48 95 -33 221 -142 221 -60 0 -74 -9 -180 -113 l-93 -92
0 82 0 81 250 244 250 243 -318 318 c-174 174 -319 317 -322 317 -3 0 -148
-143 -323 -318z"/>
</g>
</svg>
