<?xml version="1.0" standalone="no"?>
<!DOCTYPE svg PUBLIC "-//W3C//DTD SVG 20010904//EN"
 "http://www.w3.org/TR/2001/REC-SVG-20010904/DTD/svg10.dtd">
<svg version="1.0" xmlns="http://www.w3.org/2000/svg"
 width="512.000000pt" height="512.000000pt" viewBox="0 0 512.000000 512.000000"
 preserveAspectRatio="xMidYMid meet">
<g transform="translate(0.000000,512.000000) scale(0.100000,-0.100000)"
fill="#000000" stroke="none">
<path d="M393 5106 c-183 -45 -344 -210 -382 -394 -16 -75 -16 -4229 0 -4304 39 -189 208 -358 397 -397 75 -16 4229 -16 4304 0 189 39 358 208 397 397 16 75 16 4229 0 4304 -39 189 -208 358 -397 397 -81 17 -4248 14 -4319 -3z m4358 -189 c67 -32 141 -108 172 -174 l22 -48 0 -2135 0 -2135 -22 -48 c-31 -66 -105 -142 -172 -174 l-56 -28 -2135 0 -2135 0 -48 22 c-66 31 -142 105 -174 172 l-28 56 0 2135 0 2135 28 56 c45 92 135 165 232 190 17 4 982 6 2145 6 l2115 -2 56 -28z"/>
<path d="M445 4761 c-48 -22 -69 -44 -90 -94 -13 -32 -15 -173 -15 -1172 0 -942 2 -1141 14 -1168 16 -39 61 -82 99 -96 40 -15 4174 -15 4214 0 38 14 83 57 99 96 12 27 14 226 14 1170 0 1083 -1 1140 -19 1178 -22 48 -44 69 -94 90 -32 13 -266 15 -2109 15 -1990 0 -2075 -1 -2113 -19z m4165 -1261 l0 -1110 -2050 0 -2050 0 0 1110 0 1110 2050 0 2050 0 0 -1110z"/>
<path d="M2518 4255 c-37 -21 -48 -67 -48 -210 0 -94 4 -127 18 -155 20 -41 59 -58 100 -44 47 16 62 63 62 199 0 146 -10 190 -50 210 -36 18 -47 18 -82 0z"/>
<path d="M2093 4220 c-50 -20 -53 -66 -19 -249 26 -139 40 -161 103 -161 40 0 83 37 83 72 0 40 -48 285 -60 308 -11 20 -49 41 -73 39 -7 0 -22 -4 -34 -9z"/>
<path d="M2948 4215 c-15 -8 -31 -29 -37 -47 -12 -39 -51 -258 -51 -288 0 -33 44 -70 83 -70 63 0 77 22 103 161 35 186 32 219 -17 244 -34 18 -47 18 -81 0z"/>
<path d="M1684 4110 c-28 -11 -54 -48 -54 -76 0 -35 91 -277 113 -301 41 -46 122 -21 141 43 8 25 -87 291 -112 315 -22 21 -61 30 -88 19z"/>
<path d="M3375 4111 c-33 -14 -41 -30 -95 -175 -32 -88 -48 -147 -44 -160 12 -40 45 -66 84 -66 25 0 43 7 57 23 23 25 113 266 113 302 0 50 -68 95 -115 76z"/>
<path d="M1261 3904 c-12 -15 -21 -39 -21 -53 0 -40 141 -281 174 -298 55 -29 119 12 119 75 0 27 -122 251 -155 284 -29 29 -92 24 -117 -8z"/>
<path d="M3747 3918 c-16 -13 -142 -224 -158 -266 -13 -35 12 -86 50 -102 58 -23 83 -2 167 145 41 72 74 141 74 156 0 44 -35 79 -79 79 -20 0 -45 -6 -54 -12z"/>
<path d="M934 3676 c-35 -15 -44 -32 -44 -80 0 -26 15 -50 71 -117 112 -132 127 -148 156 -155 52 -14 113 46 100 98 -7 25 -175 236 -199 249 -30 16 -55 17 -84 5z"/>
<path d="M4118 3677 c-33 -15 -206 -219 -214 -254 -9 -33 12 -72 48 -92 44 -25 74 -5 180 118 86 99 98 118 98 150 0 61 -59 102 -112 78z"/>
<path d="M2517 3659 c-41 -24 -47 -65 -47 -342 l0 -265 -30 -12 c-37 -15 -97 -81 -118 -129 -19 -45 -19 -145 0 -191 21 -50 63 -96 117 -128 39 -23 57 -27 121 -27 64 0 82 4 121 27 54 32 93 75 115 127 20 46 21 146 1 192 -20 48 -79 113 -117 129 l-30 12 0 265 c0 280 -6 319 -48 342 -26 14 -62 14 -85 0z m98 -781 c47 -41 28 -129 -30 -144 -59 -15 -109 27 -107 89 1 40 41 77 82 77 16 0 41 -10 55 -22z"/>
<path d="M2410 1953 c-143 -24 -285 -79 -406 -158 l-84 -55 0 36 c0 44 -45 94 -85 94 -16 0 -38 -12 -56 -29 l-29 -29 0 -142 c0 -146 10 -190 45 -204 9 -3 84 -6 166 -6 146 0 151 1 174 25 37 36 34 86 -6 119 -17 14 -38 26 -47 26 -27 1 11 26 113 76 131 64 247 87 400 81 140 -6 229 -29 343 -86 93 -47 125 -70 100 -71 -9 0 -30 -12 -47 -26 -40 -33 -43 -83 -6 -119 23 -24 28 -25 174 -25 82 0 157 3 166 6 35 14 45 58 45 204 l0 142 -29 29 c-36 36 -70 37 -110 3 -25 -21 -31 -34 -31 -65 l0 -39 -86 57 c-173 112 -351 164 -559 162 -66 -1 -131 -4 -145 -6z"/>
<path d="M2425 1431 c-268 -77 -428 -351 -360 -616 25 -95 65 -165 135 -235 103 -103 214 -149 360 -150 144 0 261 48 360 149 200 203 200 521 0 721 -128 127 -326 180 -495 131z m277 -183 c71 -33 133 -94 167 -167 22 -47 26 -70 26 -146 0 -84 -2 -95 -34 -153 -38 -70 -89 -119 -160 -154 -67 -33 -215 -33 -282 0 -71 35 -122 84 -159 153 -99 185 -3 419 199 484 68 22 174 14 243 -17z"/>
</g>
</svg>
