<?xml version="1.0" standalone="no"?>
<!DOCTYPE svg PUBLIC "-//W3C//DTD SVG 20010904//EN"
 "http://www.w3.org/TR/2001/REC-SVG-20010904/DTD/svg10.dtd">
<svg version="1.0" xmlns="http://www.w3.org/2000/svg"
 width="512.000000pt" height="512.000000pt" viewBox="0 0 512.000000 512.000000"
 preserveAspectRatio="xMidYMid meet">
<g transform="translate(0.000000,512.000000) scale(0.100000,-0.100000)"
fill="#000000" stroke="none">
<path d="M241 3983 c-27 -23 -204 -632 -195 -670 4 -13 16 -31 29 -39 12 -8 206 -90 431 -183 l409 -169 5 -442 5 -442 24 -19 c22 -18 43 -19 333 -19 l309 0 24 25 c16 15 25 36 25 55 0 19 -9 40 -25 55 l-24 25 -256 0 -255 0 0 560 0 560 671 -2 671 -3 18 -57 c53 -173 176 -265 340 -256 68 4 129 24 650 216 316 116 575 210 576 209 1 -1 -206 -276 -460 -612 l-462 -610 -323 -5 -323 -5 -19 -24 c-26 -32 -24 -77 6 -106 l24 -25 349 0 c319 0 352 2 370 18 11 9 266 343 568 742 301 399 552 728 558 732 6 4 57 24 113 44 141 50 160 41 184 -93 13 -77 33 -109 74 -119 30 -7 71 17 87 51 15 33 -23 206 -57 256 -13 21 -46 51 -72 66 -40 23 -59 28 -113 27 -59 -1 -138 -28 -885 -302 -613 -226 -831 -302 -864 -302 -63 0 -123 38 -148 92 -11 24 -28 74 -38 113 -32 120 -17 115 -340 115 l-275 0 0 160 0 160 135 0 c131 0 137 1 160 25 33 32 33 78 0 110 l-24 25 -351 0 -351 0 -24 -25 c-33 -32 -33 -78 0 -110 23 -24 29 -25 160 -25 l135 0 0 -160 0 -160 -360 0 -360 0 0 84 c0 74 -3 88 -22 110 -26 29 -738 366 -773 366 -13 0 -32 -8 -44 -17z m679 -669 l0 -222 -346 143 c-190 79 -348 145 -350 147 -2 3 17 76 42 164 24 87 51 182 59 210 l15 52 290 -136 290 -137 0 -221z"/>
<path d="M1820 2960 c-20 -20 -20 -33 -20 -690 0 -630 -1 -671 -17 -676 -122 -40 -234 -138 -274 -241 -30 -78 -32 -206 -5 -280 39 -105 134 -200 239 -239 74 -27 202 -25 280 5 81 32 167 114 209 199 31 62 33 74 33 167 0 88 -3 107 -27 158 -15 32 -41 76 -58 97 -37 47 -120 103 -177 120 l-43 13 0 104 0 103 155 0 c152 0 156 1 180 25 33 32 33 78 0 110 -24 24 -28 25 -180 25 l-155 0 0 120 0 120 155 0 c152 0 156 1 180 25 16 15 25 36 25 55 0 19 -9 40 -25 55 -24 24 -28 25 -180 25 l-155 0 0 120 0 120 155 0 c152 0 156 1 180 25 16 15 25 36 25 55 0 19 -9 40 -25 55 -23 24 -28 25 -179 25 l-154 0 -4 89 c-2 70 -7 93 -22 110 -26 28 -88 29 -116 1z m182 -1556 c70 -49 102 -103 106 -182 3 -58 0 -74 -25 -122 -67 -128 -230 -168 -340 -84 -145 111 -131 314 27 397 48 25 64 28 122 25 55 -3 75 -9 110 -34z"/>
<path d="M4643 2947 c-51 -29 -240 -296 -304 -432 -73 -155 -76 -245 -14 -371 42 -86 102 -144 193 -187 61 -29 76 -32 162 -32 86 0 101 3 162 32 91 43 151 101 194 187 47 97 55 184 24 276 -39 116 -129 269 -262 441 -72 94 -107 113 -155 86z m120 -313 c82 -118 144 -238 153 -293 11 -67 -13 -129 -70 -186 -102 -101 -230 -101 -332 0 -87 87 -94 166 -27 298 58 117 179 290 197 284 6 -2 42 -48 79 -103z"/>
</g>
</svg>
