<?xml version="1.0" standalone="no"?>
<!DOCTYPE svg PUBLIC "-//W3C//DTD SVG 20010904//EN"
 "http://www.w3.org/TR/2001/REC-SVG-20010904/DTD/svg10.dtd">
<svg version="1.0" xmlns="http://www.w3.org/2000/svg"
 width="512.000000pt" height="512.000000pt" viewBox="0 0 512.000000 512.000000"
 preserveAspectRatio="xMidYMid meet">
<g transform="translate(0.000000,512.000000) scale(0.100000,-0.100000)"
fill="#000000" stroke="none">
<path d="M1828 5110 c-262 -48 -446 -210 -456 -403 -6 -95 14 -140 108 -246 42 -48 96 -116 119 -150 81 -119 151 -293 151 -374 0 -24 3 -28 18 -22 43 17 209 17 292 1 95 -20 222 -75 290 -127 25 -19 51 -38 57 -42 8 -5 32 19 71 70 144 195 232 447 232 662 0 100 -15 162 -58 247 -77 153 -268 292 -498 364 -78 24 -248 35 -326 20z"/>
<path d="M3902 5105 c-195 -47 -337 -179 -405 -375 l-22 -65 -2 -1290 c-2 -710 -5 -1299 -8 -1311 -2 -11 -45 -50 -94 -87 -232 -174 -386 -426 -431 -709 -18 -112 -9 -331 19 -436 50 -191 139 -348 279 -494 568 -591 1560 -368 1823 410 153 452 -6 949 -396 1238 -41 30 -79 63 -85 74 -7 12 -10 445 -10 1297 0 1104 -2 1287 -15 1342 -68 286 -371 475 -653 406z m215 -276 c57 -18 119 -75 150 -136 l28 -58 3 -1380 2 -1380 78 -37 c218 -106 381 -305 443 -543 29 -109 29 -289 1 -396 -42 -156 -116 -283 -234 -395 -160 -153 -342 -225 -571 -225 -140 1 -239 24 -362 86 -428 215 -581 742 -335 1156 80 136 227 265 370 327 l60 25 0 1372 c0 1522 -4 1421 67 1504 72 85 184 115 300 80z"/>
<path d="M3959 4631 l-29 -29 0 -1415 c0 -1333 -1 -1416 -17 -1436 -10 -12 -53 -35 -96 -51 -112 -41 -179 -85 -257 -167 -50 -52 -80 -95 -108 -155 -52 -109 -66 -172 -65 -293 1 -81 6 -116 29 -185 54 -164 169 -297 319 -371 104 -51 180 -69 285 -69 182 0 318 58 451 189 95 95 145 182 173 301 20 83 20 219 1 295 -22 86 -87 212 -141 273 -65 74 -170 145 -262 178 -42 15 -88 38 -102 51 l-25 23 -5 1426 -5 1426 -24 19 c-36 29 -87 25 -122 -10z m-241 -3536 c18 -15 34 -41 40 -68 22 -87 97 -162 191 -193 90 -29 117 -108 54 -163 -23 -20 -34 -22 -75 -18 -71 9 -179 70 -239 135 -57 63 -80 104 -104 186 -20 68 -9 107 34 131 38 21 66 18 99 -10z"/>
<path d="M570 3989 c-191 -21 -358 -158 -469 -384 -78 -158 -96 -227 -96 -375 0 -140 18 -217 80 -340 50 -99 103 -153 197 -200 70 -35 89 -40 147 -40 88 1 132 22 238 116 170 151 390 264 516 264 26 0 28 3 23 23 -4 12 -10 63 -13 113 -10 163 45 341 145 473 49 65 50 62 -62 139 -177 122 -382 195 -611 216 -16 1 -59 -1 -95 -5z"/>
<path d="M1803 3735 c-185 -40 -352 -197 -408 -381 -73 -243 45 -518 272 -637 218 -114 463 -76 638 98 218 218 218 552 0 770 -136 136 -317 190 -502 150z m257 -198 c39 -14 73 -38 116 -81 77 -78 106 -147 106 -256 0 -109 -29 -178 -106 -256 -77 -77 -146 -106 -256 -105 -84 0 -140 16 -204 60 -87 60 -142 147 -155 246 -39 284 227 492 499 392z"/>
<path d="M1845 3366 c-16 -8 -42 -26 -57 -42 -108 -116 -26 -304 131 -304 159 0 241 188 133 304 -51 54 -140 72 -207 42z"/>
<path d="M3230 3639 c-157 -141 -367 -246 -535 -267 -60 -7 -60 -7 -55 -37 12 -69 4 -261 -12 -322 -23 -82 -69 -175 -123 -248 -35 -46 -42 -62 -33 -72 6 -8 56 -44 110 -80 177 -117 369 -184 586 -203 63 -6 117 -9 119 -7 2 2 2 292 1 645 l-3 640 -55 -49z"/>
<path d="M1359 2578 c-141 -191 -229 -447 -229 -668 1 -233 154 -430 430 -552 134 -59 198 -73 335 -73 139 0 219 20 348 87 134 70 217 188 225 321 6 95 -14 139 -110 250 -94 107 -155 197 -203 300 -37 77 -65 173 -65 220 0 24 -3 28 -17 22 -44 -17 -210 -17 -293 -1 -98 20 -244 86 -307 140 -22 20 -44 36 -47 36 -3 0 -33 -37 -67 -82z"/>
</g>
</svg>
