<?xml version="1.0" standalone="no"?>
<!DOCTYPE svg PUBLIC "-//W3C//DTD SVG 20010904//EN"
 "http://www.w3.org/TR/2001/REC-SVG-20010904/DTD/svg10.dtd">
<svg version="1.0" xmlns="http://www.w3.org/2000/svg"
 width="512.000000pt" height="512.000000pt" viewBox="0 0 512.000000 512.000000"
 preserveAspectRatio="xMidYMid meet">

<g transform="translate(0.000000,512.000000) scale(0.100000,-0.100000)"
fill="#000000" stroke="none">
<path d="M314 3685 c-147 -46 -260 -169 -300 -326 -32 -125 0 -267 82 -358 25
-28 205 -184 399 -347 345 -289 354 -298 364 -343 6 -25 34 -178 61 -340 35
-207 57 -310 74 -347 33 -71 97 -138 165 -171 l56 -28 810 0 810 0 65 31 c53
25 190 141 755 638 l690 607 70 -8 c39 -4 95 -7 125 -8 l55 0 42 164 c29 114
39 170 33 182 -6 10 -101 53 -229 104 l-219 88 -403 -213 c-222 -117 -408
-213 -414 -213 -5 0 -74 45 -152 101 -165 119 -222 150 -300 162 -32 6 -183
10 -335 10 -261 0 -278 1 -278 18 0 35 21 42 130 42 69 0 110 4 118 12 9 9 12
69 12 209 0 166 -2 200 -16 213 -14 14 -75 16 -529 16 -454 0 -515 -2 -529
-16 -14 -13 -16 -47 -16 -213 0 -151 3 -201 13 -209 7 -6 60 -13 118 -14 l104
-3 3 -27 3 -28 -206 0 -206 0 -157 128 c-239 195 -502 404 -554 440 -82 56
-219 77 -314 47z m193 -232 c31 -17 503 -400 503 -408 0 -3 -14 -12 -31 -21
-48 -24 -118 -94 -141 -139 -13 -25 -23 -69 -27 -117 l-6 -78 -264 223 c-146
122 -273 234 -284 249 -28 37 -34 118 -13 171 19 50 68 104 111 123 43 19 115
17 152 -3z m2391 -650 c2 -14 -3 -23 -15 -26 -10 -3 -346 -32 -748 -64 -669
-53 -732 -60 -752 -78 -22 -19 -24 -35 -53 -454 -18 -256 -35 -440 -41 -448
-18 -21 -58 -16 -68 10 -5 12 -36 235 -69 496 -54 418 -60 477 -48 505 17 40
47 66 88 76 18 4 409 7 868 7 l835 -2 3 -22z"/>
<path d="M4752 2678 c-5 -7 -12 -47 -14 -89 -4 -71 -10 -86 -94 -255 -126
-251 -141 -336 -83 -452 32 -65 66 -99 133 -135 34 -18 57 -22 137 -22 93 0
98 1 148 35 87 59 141 172 141 295 0 188 -154 505 -294 607 -43 31 -59 34 -74
16z"/>
</g>
</svg>
